<svg viewBox="0 0 64 64" data-name="Layer 1" xmlns="http://www.w3.org/2000/svg"><path d="M41.78 57.13a7.12 7.12 0 0 1-4.2-1.39l-4.32-3.16a3.12 3.12 0 0 0-3.7 0l-4.32 3.16a7.14 7.14 0 0 1-11.31-6.53l.58-5.32a3.11 3.11 0 0 0-1.85-3.2l-4.89-2.16a7.13 7.13 0 0 1 0-13.06l4.89-2.16a3.11 3.11 0 0 0 1.85-3.2l-.58-5.32a7.14 7.14 0 0 1 11.31-6.53l4.32 3.16a3.12 3.12 0 0 0 3.7 0l4.32-3.16A7 7 0 0 1 43 7a7.25 7.25 0 0 1 4.75 3.13 2 2 0 1 1-3.34 2.2 3.23 3.23 0 0 0-2.12-1.39 3 3 0 0 0-2.37.57l-4.32 3.16a7.13 7.13 0 0 1-8.43 0l-4.31-3.16a3.13 3.13 0 0 0-5 2.87l.58 5.31A7.11 7.11 0 0 1 14.28 27l-4.9 2.16a3.14 3.14 0 0 0 0 5.74l4.9 2.1a7.11 7.11 0 0 1 4.21 7.3l-.58 5.31a3.13 3.13 0 0 0 5 2.87l4.31-3.16a7.13 7.13 0 0 1 8.43 0l4.32 3.16a3.13 3.13 0 0 0 5-2.87l-.58-5.31a7.1 7.1 0 0 1 4.15-7.3l4.9-2.16a3.14 3.14 0 0 0 0-5.74L50.78 28a2 2 0 1 1 1.61-3.66l2.66 1.17a7.13 7.13 0 0 1 0 13.06l-4.89 2.16a3.13 3.13 0 0 0-1.86 3.2l.58 5.32a7 7 0 0 1-3.52 6.95 7.17 7.17 0 0 1-3.58.93Z" fill="currentColor"/><path d="M31.64 39a2 2 0 0 1-1.42-.59l-8.61-8.61a2 2 0 1 1 2.83-2.8l7.2 7.2L57.08 8.72a2 2 0 0 1 2.82 2.83L33.05 38.4a2 2 0 0 1-1.41.6Z" fill="currentColor"/></svg>